# Blender v2.82 (sub 7) OBJ File: ''
# www.blender.org
mtllib b_shell0.mtl
o bsp_model_0
v 0.000000 0.750000 0.000000
v 0.000000 0.000000 0.000000
v 0.000000 0.000000 -0.750000
v 0.000000 0.750000 -0.750000
v 0.750000 0.000000 -0.750000
v 0.750000 0.000000 0.000000
v 0.750000 0.750000 -0.750000
v 0.750000 0.750000 0.000000
vt 0.750000 0.750000
vt 0.750000 -0.000000
vt 0.000000 -0.000000
vt 0.000000 0.750000
vt 0.750000 0.750000
vt 0.750000 -0.000000
vt 0.000000 -0.000000
vt 0.000000 0.750000
vt 0.000000 0.750000
vt 0.000000 -0.000000
vt 0.750000 -0.000000
vt 0.750000 0.750000
vt 1.500000 -0.000000
vt 0.000000 1.500000
vt 1.500000 1.500000
vt 0.750000 -0.000000
vt 0.000000 -0.000000
vn -1.0000 0.0000 0.0000
vn 0.0000 0.0000 -1.0000
vn 1.0000 0.0000 0.0000
vn 0.0000 0.0000 1.0000
vn 0.0000 -1.0000 0.0000
vn 0.0000 1.0000 0.0000
usemtl shot0sid
s off
f 4/1/1 3/2/1 2/3/1 1/4/1
f 7/5/2 5/6/2 3/7/2 4/8/2
f 8/9/3 6/10/3 5/6/3 7/5/3
f 1/4/4 2/3/4 6/11/4 8/12/4
usemtl rockettop
f 6/13/5 2/3/5 3/14/5 5/15/5
usemtl shot0top
f 8/16/6 7/5/6 4/8/6 1/17/6
